<svg xmlns="http://www.w3.org/2000/svg" xmlns:xlink="http://www.w3.org/1999/xlink" data-name="Layer 1" width="85" height="25" style=""><rect id="backgroundrect" width="100%" height="100%" x="0" y="0" fill="none" stroke="none"/><defs><style>.cls-1{fill:#1e2522;}.cls-10,.cls-2,.cls-3{fill:#fff;}.cls-2{stroke:#fff;stroke-miterlimit:10;stroke-width:0.2px;}.cls-4{fill:url(#linear-gradient);}.cls-5{fill:url(#linear-gradient-2);}.cls-6{fill:url(#linear-gradient-3);}.cls-7{fill:url(#linear-gradient-4);}.cls-8{opacity:0.2;}.cls-10,.cls-8,.cls-9{isolation:isolate;}.cls-9{opacity:0.12;}.cls-10{opacity:0.25;}</style><linearGradient id="linear-gradient" x1="25.780000686645508" y1="-59.779998779296875" x2="15.1899995803833" y2="-70.37000274658203" gradientTransform="matrix(1, 0, 0, -1, 0, -46.7)" gradientUnits="userSpaceOnUse"><stop offset="0" stop-color="#00a0ff"/><stop offset="0.01" stop-color="#00a1ff"/><stop offset="0.26" stop-color="#00beff"/><stop offset="0.51" stop-color="#00d2ff"/><stop offset="0.76" stop-color="#00dfff"/><stop offset="1" stop-color="#00e3ff"/></linearGradient><linearGradient id="linear-gradient-2" x1="33.369998931884766" y1="-66.9000015258789" x2="18.100000381469727" y2="-66.9000015258789" gradientTransform="matrix(1, 0, 0, -1, 0, -46.7)" gradientUnits="userSpaceOnUse"><stop offset="0" stop-color="#ffe000"/><stop offset="0.41" stop-color="#ffbd00"/><stop offset="0.78" stop-color="orange"/><stop offset="1" stop-color="#ff9c00"/></linearGradient><linearGradient id="linear-gradient-3" x1="27.690000534057617" y1="-68.3499984741211" x2="13.329999923706055" y2="-82.70999908447266" gradientTransform="matrix(1, 0, 0, -1, 0, -46.7)" gradientUnits="userSpaceOnUse"><stop offset="0" stop-color="#ff3a44"/><stop offset="1" stop-color="#c31162"/></linearGradient><linearGradient id="linear-gradient-4" x1="16.6200008392334" y1="-54.38999938964844" x2="23.040000915527344" y2="-60.810001373291016" gradientTransform="matrix(1, 0, 0, -1, 0, -46.7)" gradientUnits="userSpaceOnUse"><stop offset="0" stop-color="#32a071"/><stop offset="0.07" stop-color="#2da771"/><stop offset="0.48" stop-color="#15cf74"/><stop offset="0.8" stop-color="#06e775"/><stop offset="1" stop-color="#00f076"/></linearGradient></defs><g class="currentLayer" style=""><title>Layer 1</title><rect class="cls-1" x="0" y="0" width="85.19000244140625" height="25.239999771118164" rx="3.1600000858306885" id="svg_1"/><path class="cls-2" d="M29.919999542236326,6.45999984741211 a1.6700000000000002,1.6700000000000002 0 0 1 -0.47000000000000003,1.26 a1.8,1.8 0 0 1 -1.3900000000000001,0.56 a1.8900000000000001,1.8900000000000001 0 0 1 -1.3900000000000001,-0.56 a2,2 0 0 1 0,-2.8200000000000003 a2,2 0 0 1 2.17,-0.41000000000000003 a1.44,1.44 0 0 1 0.5900000000000001,0.42000000000000004 l-0.33000000000000007,0.33000000000000007 a1.28,1.28 0 0 0 -1,-0.45 a1.4300000000000002,1.4300000000000002 0 0 0 -1,0.42000000000000004 a1.48,1.48 0 0 0 -0.44000000000000006,1.1 A1.46,1.46 0 0 0 27.029999542236325,7.409999847412109 a1.4300000000000002,1.4300000000000002 0 0 0 1,0.42000000000000004 A1.45,1.45 0 0 0 29.11999954223633,7.409999847412109 a1.24,1.24 0 0 0 0.32000000000000006,-0.77 H28.059999542236326 v-0.46 h1.84 C29.909999542236328,6.269999847412109 29.919999542236326,6.409999847412109 29.919999542236326,6.45999984741211 z" id="svg_2"/><path class="cls-2" d="M32.82999954223633,4.87999984741211 H31.10999954223633 v1.2 h1.55 v0.45 H31.10999954223633 v1.2 h1.7200000000000002 v0.47000000000000003 H30.61999954223633 V4.409999847412109 h2.21 z" id="svg_3"/><path class="cls-2" d="M34.87999954223633,8.199999847412109 h-0.48000000000000004 V4.87999984741211 H33.33999954223633 V4.409999847412109 H35.97999954223633 v0.47000000000000003 H34.87999954223633 z" id="svg_4"/><path class="cls-2" d="M37.81999954223633,8.199999847412109 V4.409999847412109 h0.49000000000000005 v3.79 z" id="svg_5"/><path class="cls-2" d="M40.46999954223633,8.199999847412109 H39.97999954223633 V4.87999984741211 H38.919999542236326 V4.409999847412109 h2.6100000000000003 v0.47000000000000003 H40.46999954223633 z" id="svg_6"/><path class="cls-2" d="M46.44999954223633,7.70999984741211 a1.85,1.85 0 0 1 -1.3900000000000001,0.5700000000000001 a1.8900000000000001,1.8900000000000001 0 0 1 -1.3900000000000001,-0.5700000000000001 a1.9300000000000002,1.9300000000000002 0 0 1 -0.55,-1.4 a2,2 0 0 1 0.55,-1.4100000000000001 a1.8900000000000001,1.8900000000000001 0 0 1 1.3900000000000001,-0.5700000000000001 a1.86,1.86 0 0 1 1.3900000000000001,0.5800000000000001 a2,2 0 0 1 0,2.8 zM44.029999542236325,7.409999847412109 a1.3800000000000001,1.3800000000000001 0 0 0 1,0.43000000000000005 a1.37,1.37 0 0 0 1,-0.43000000000000005 a1.46,1.46 0 0 0 0.42000000000000004,-1.08 a1.49,1.49 0 0 0 -0.42000000000000004,-1.09 a1.4,1.4 0 0 0 -1,-0.43000000000000005 a1.42,1.42 0 0 0 -1,0.43000000000000005 a1.49,1.49 0 0 0 -0.42000000000000004,1.09 A1.46,1.46 0 0 0 44.029999542236325,7.409999847412109 z" id="svg_7"/><path class="cls-2" d="M47.68999954223633,8.199999847412109 V4.409999847412109 h0.5900000000000001 L50.11999954223633,7.409999847412109 h0 l0,-0.7300000000000001 V4.409999847412109 h0.49000000000000005 v3.79 h-0.51 L48.17999954223633,5.109999847412109 h0 l0,0.7300000000000001 v2.36 z" id="svg_8"/><path class="cls-3" d="M42.97999954223633,13.719999847412108 A2.6900000000000004,2.6900000000000004 0 1 0 45.68999954223633,16.40999984741211 A2.6500000000000004,2.6500000000000004 0 0 0 42.97999954223633,13.719999847412108 zm0,4.3100000000000005 A1.6300000000000001,1.6300000000000001 0 1 1 44.50999954223633,16.40999984741211 A1.55,1.55 0 0 1 42.97999954223633,18.02999984741211 zm-5.88,-4.3100000000000005 A2.6900000000000004,2.6900000000000004 0 1 0 39.809999542236326,16.40999984741211 A2.6500000000000004,2.6500000000000004 0 0 0 37.11999954223633,13.719999847412108 zm0,4.3100000000000005 A1.6300000000000001,1.6300000000000001 0 1 1 38.62999954223633,16.40999984741211 A1.56,1.56 0 0 1 37.11999954223633,18.02999984741211 zm-7,-3.48 v1.13 h2.72 a2.35,2.35 0 0 1 -0.6200000000000001,1.44 a2.79,2.79 0 0 1 -2.1,0.8300000000000001 a3,3 0 0 1 0,-6.06 a2.9,2.9 0 0 1 2.05,0.8200000000000001 l0.8,-0.81 a4,4 0 0 0 -2.85,-1.15 a4.17,4.17 0 1 0 0,8.34 a3.84,3.84 0 0 0 2.91,-1.17 a3.7600000000000002,3.7600000000000002 0 0 0 1,-2.66 a3.6900000000000004,3.6900000000000004 0 0 0 -0.06000000000000001,-0.7100000000000001 zM58.71999954223632,15.40999984741211 a2.5,2.5 0 0 0 -2.3,-1.71 A2.55,2.55 0 0 0 53.889999542236325,16.40999984741211 a2.63,2.63 0 0 0 2.66,2.68 a2.66,2.66 0 0 0 2.24,-1.19 l-0.91,-0.6100000000000001 a1.55,1.55 0 0 1 -1.33,0.7400000000000001 a1.36,1.36 0 0 1 -1.3,-0.81 l3.59,-1.48 zm-3.66,0.9 a1.47,1.47 0 0 1 1.4,-1.57 a1,1 0 0 1 1,0.5700000000000001 zm-2.92,2.6 h1.18 V11.039999847412108 H52.139999542236325 zm-1.9300000000000002,-4.61 h0 a1.86,1.86 0 0 0 -1.4100000000000001,-0.6000000000000001 a2.6900000000000004,2.6900000000000004 0 0 0 0,5.37 a1.8,1.8 0 0 0 1.4100000000000001,-0.6100000000000001 h0 v0.39000000000000007 A1.37,1.37 0 0 1 48.779999542236325,20.40999984741211 a1.51,1.51 0 0 1 -1.36,-1 l-1,0.42000000000000004 a2.55,2.55 0 0 0 2.38,1.59 c1.3800000000000001,0 2.55,-0.81 2.55,-2.8 V13.88999984741211 H50.209999542236325 zm-1.35,3.71 a1.6300000000000001,1.6300000000000001 0 0 1 0,-3.25 A1.51,1.51 0 0 1 50.28999954223633,16.40999984741211 A1.5,1.5 0 0 1 48.85999954223633,18.02999984741211 zm15.38,-7 H61.419999542236326 v7.890000000000001 h1.18 v-3 h1.6400000000000001 a2.45,2.45 0 1 0 0,-4.9 zm0,3.8 H62.59999954223633 v-2.7 h1.6700000000000002 a1.35,1.35 0 1 1 0,2.7 zm7.28,-1.13 a2.21,2.21 0 0 0 -2.1,1.21 l1,0.43000000000000005 a1.12,1.12 0 0 1 1.07,-0.5800000000000001 a1.1400000000000001,1.1400000000000001 0 0 1 1.24,1 v0.08000000000000002 a2.63,2.63 0 0 0 -1.23,-0.30000000000000004 c-1.12,0 -2.27,0.6100000000000001 -2.27,1.77 a1.82,1.82 0 0 0 2,1.7400000000000002 a1.6700000000000002,1.6700000000000002 0 0 0 1.5,-0.77 h0 v0.6000000000000001 H73.97999954223633 v-3 A2.17,2.17 0 0 0 71.54999954223632,13.70999984741211 zm-0.14,4.32 c-0.39000000000000007,0 -0.92,-0.19000000000000003 -0.92,-0.6700000000000002 s0.6700000000000002,-0.8400000000000001 1.24,-0.8400000000000001 a2.12,2.12 0 0 1 1.08,0.26 A1.4300000000000002,1.4300000000000002 0 0 1 71.40999954223633,18.02999984741211 zm6.68,-4.15 l-1.35,3.42 h0 l-1.4,-3.42 H74.02999954223633 l2.1,4.78 L74.97999954223633,21.31999984741211 h1.23 l3.24,-7.44 zM67.47999954223633,18.92999984741211 h1.18 V11.039999847412108 H67.47999954223633 z" id="svg_9"/><path class="cls-4" d="M6.5799995422363295,4.749999847412109 a1.3,1.3 0 0 0 -0.29000000000000004,0.8900000000000001 v14 a1.26,1.26 0 0 0 0.29000000000000004,0.8800000000000001 l0,0.05000000000000001 l7.82,-7.82 v-0.18000000000000002 L6.629999542236327,4.70999984741211 z" id="svg_10"/><path class="cls-5" d="M17.059999542236326,15.31999984741211 L14.449999542236327,12.70999984741211 v-0.18000000000000002 l2.6100000000000003,-2.6100000000000003 l0.05000000000000001,0 l3.09,1.7600000000000002 a1,1 0 0 1 0,1.82 l-3.09,1.75 z" id="svg_11"/><path class="cls-6" d="M17.109999542236327,15.27999984741211 l-2.66,-2.66 L6.5799995422363295,20.47999984741211 a1,1 0 0 0 1.32,0 l9.21,-5.24 " id="svg_12"/><path class="cls-7" d="M17.109999542236327,9.949999847412109 L7.89999954223633,4.70999984741211 a1.06,1.06 0 0 0 -1.32,0 l7.87,7.87 z" id="svg_13"/><path class="cls-8" d="M17.059999542236326,15.219999847412108 L7.89999954223633,20.40999984741211 a1.07,1.07 0 0 1 -1.27,0 h0 l0,0 h0 l0,0.05000000000000001 h0 a1.07,1.07 0 0 0 1.27,0 l9.21,-5.24 z" id="svg_14"/><path class="cls-9" d="M6.5799995422363295,20.40999984741211 a1.28,1.28 0 0 1 -0.29000000000000004,-0.8900000000000001 v0.1 a1.26,1.26 0 0 0 0.29000000000000004,0.8800000000000001 l0,0 z" id="svg_15"/><path class="cls-9" d="M20.199999542236327,13.40999984741211 l-3.14,1.78 l0.05000000000000001,0.06000000000000001 l3.09,-1.75 a1.11,1.11 0 0 0 0.6600000000000001,-0.91 h0 A1.1600000000000001,1.1600000000000001 0 0 1 20.199999542236327,13.40999984741211 z" id="svg_16"/><path class="cls-10" d="M7.89999954223633,4.80999984741211 l12.3,7 a1.1600000000000001,1.1600000000000001 0 0 1 0.6600000000000001,0.8200000000000001 h0 a1.11,1.11 0 0 0 -0.6600000000000001,-0.91 l-12.3,-7 c-0.8900000000000001,-0.5 -1.61,-0.08000000000000002 -1.61,0.93 v0.09000000000000002 C6.289999542236327,4.71999984741211 6.979999542236328,4.30999984741211 7.89999954223633,4.80999984741211 z" id="svg_17"/></g></svg>