<svg xmlns="http://www.w3.org/2000/svg" data-name="Layer 1" width="78" height="25" style=""><rect id="backgroundrect" width="100%" height="100%" x="0" y="0" fill="none" stroke="none"/><defs><style>.cls-1{fill:#1e2522;}.cls-2{fill:#fff;}</style></defs><g class="currentLayer" style=""><title>Layer 1</title><path class="cls-1" d="M4.989999875426292,25.240000324249266 h-0.6000000000000002 a7.79,7.79 0 0 1 -1.23,-0.11000000000000003 a3.84,3.84 0 0 1 -1.1,-0.3600000000000001 a3.66,3.66 0 0 1 -1.59,-1.59 a3.84,3.84 0 0 1 -0.3600000000000001,-1.1 a8.34,8.34 0 0 1 -0.11000000000000003,-1.23 c0,-0.14 0,-0.6100000000000002 0,-0.6100000000000002 V4.990000324249268 s0,-0.46 0,-0.5900000000000002 a8.34,8.34 0 0 1 0.11000000000000003,-1.23 a3.74,3.74 0 0 1 0.3600000000000001,-1.1 a3.25,3.25 0 0 1 0.6700000000000004,-0.92 a3.6,3.6 0 0 1 0.92,-0.6800000000000004 A4,4 0 0 1 3.1899998754262926,0.11000032424926776 a8.58,8.58 0 0 1 1.24,-0.11000000000000003 h69 a8.34,8.34 0 0 1 1.23,0.11000000000000003 a4,4 0 0 1 1.1,0.3600000000000001 a3.81,3.81 0 0 1 0.92,0.6700000000000004 a3.71,3.71 0 0 1 0.6800000000000004,0.93 a4,4 0 0 1 0.3500000000000001,1.09 A7.52,7.52 0 0 1 77.8299998754263,4.4100003242492685 c0,0.19000000000000006 0,0.3900000000000001 0,0.5900000000000002 V20.230000324249268 c0,0.22000000000000006 0,0.4100000000000001 0,0.6100000000000002 a7.49,7.49 0 0 1 -0.11000000000000003,1.23 a3.6500000000000004,3.6500000000000004 0 0 1 -0.3600000000000001,1.1 a3.81,3.81 0 0 1 -1.59,1.59 a3.84,3.84 0 0 1 -1.1,0.3600000000000001 a7.79,7.79 0 0 1 -1.23,0.11000000000000003 H4.989999875426292 z" id="svg_1"/><path class="cls-2" d="M15.799999875426291,12.810000324249266 a3.24,3.24 0 0 1 1.55,-2.73 a3.31,3.31 0 0 0 -2.63,-1.4300000000000002 c-1.11,-0.12000000000000002 -2.18,0.6600000000000003 -2.75,0.6600000000000003 s-1.44,-0.6500000000000002 -2.38,-0.6300000000000002 a3.52,3.52 0 0 0 -2.95,1.8 c-1.28,2.21 -0.3200000000000001,5.46 0.9,7.24 c0.6100000000000002,0.8800000000000002 1.32,1.86 2.26,1.82 s1.26,-0.5800000000000002 2.36,-0.5800000000000002 s1.42,0.5800000000000002 2.37,0.56 s1.6,-0.8800000000000002 2.19,-1.7600000000000002 a7,7 0 0 0 1,-2 A3.17,3.17 0 0 1 15.799999875426291,12.810000324249266 z" id="svg_2"/><path class="cls-2" d="M13.989999875426292,7.480000324249268 a3.26,3.26 0 0 0 0.7300000000000002,-2.31 a3.31,3.31 0 0 0 -2.12,1.1 a3.09,3.09 0 0 0 -0.7500000000000002,2.22 A2.74,2.74 0 0 0 13.989999875426292,7.480000324249268 z" id="svg_3"/><path class="cls-2" d="M27.36999987542629,17.33000032424927 H24.239999875426292 l-0.7500000000000002,2.21 H22.169999875426292 l3,-8.19 h1.37 l3,8.19 H28.119999875426295 zm-2.8,-1 h2.47 l-1.22,-3.6 h0 z" id="svg_4"/><path class="cls-2" d="M35.84999987542629,16.560000324249266 c0,1.85 -1,3.05 -2.49,3.05 a2,2 0 0 1 -1.8800000000000003,-1.05 h0 v3 H30.21999987542629 V13.570000324249268 h1.19 v1 h0 a2.13,2.13 0 0 1 1.9100000000000001,-1 C34.84999987542629,13.510000324249269 35.84999987542629,14.700000324249267 35.84999987542629,16.560000324249266 zm-1.26,0 c0,-1.21 -0.6200000000000002,-2 -1.58,-2 s-1.56,0.81 -1.56,2 s0.6300000000000002,2 1.56,2 S34.589999875426294,17.78000032424927 34.589999875426294,16.560000324249266 z" id="svg_5"/><path class="cls-2" d="M42.42999987542629,16.560000324249266 c0,1.85 -1,3.05 -2.5,3.05 a2,2 0 0 1 -1.87,-1.05 h0 v3 H36.799999875426295 V13.570000324249268 H37.98999987542629 v1 h0 a2.12,2.12 0 0 1 1.9,-1 C41.42999987542629,13.510000324249269 42.42999987542629,14.700000324249267 42.42999987542629,16.560000324249266 zm-1.26,0 c0,-1.21 -0.6300000000000002,-2 -1.58,-2 S37.98999987542629,15.410000324249268 37.98999987542629,16.560000324249266 s0.6300000000000002,2 1.57,2 S41.16999987542629,17.78000032424927 41.16999987542629,16.560000324249266 z" id="svg_6"/><path class="cls-2" d="M46.769999875426294,17.26000032424927 c0.09000000000000004,0.81 0.8800000000000002,1.35 2,1.35 s1.78,-0.54 1.78,-1.27 s-0.45,-1 -1.51,-1.28 L47.98999987542629,15.810000324249266 c-1.51,-0.3700000000000001 -2.21,-1.07 -2.21,-2.21 c0,-1.42 1.24,-2.39 3,-2.39 s2.91,1 3,2.39 H50.439999875426295 c-0.08000000000000003,-0.8200000000000002 -0.7500000000000002,-1.31 -1.7400000000000002,-1.31 S46.98999987542629,12.780000324249269 46.98999987542629,13.510000324249269 c0,0.5800000000000002 0.4400000000000001,0.92 1.49,1.18 l0.91,0.22000000000000006 c1.6800000000000004,0.4 2.38,1.08 2.38,2.2800000000000002 c0,1.53 -1.23,2.49 -3.17,2.49 s-3,-0.9400000000000002 -3.12,-2.42 z" id="svg_7"/><path class="cls-2" d="M54.44999987542629,12.150000324249266 v1.42 H55.589999875426294 v1 H54.44999987542629 v3.29 c0,0.51 0.23,0.7500000000000002 0.7300000000000002,0.7500000000000002 a2.33,2.33 0 0 0 0.4,0 v1 a3.6100000000000003,3.6100000000000003 0 0 1 -0.6800000000000004,0.06000000000000002 c-1.21,0 -1.6800000000000004,-0.46 -1.6800000000000004,-1.62 V14.540000324249267 h-0.8700000000000002 v-1 h0.8700000000000002 V12.150000324249266 z" id="svg_8"/><path class="cls-2" d="M56.24999987542629,16.560000324249266 a2.84,2.84 0 1 1 5.66,0 a2.84,2.84 0 1 1 -5.66,0 zm4.41,0 c0,-1.29 -0.5900000000000002,-2 -1.58,-2 s-1.58,0.7600000000000002 -1.58,2 s0.5900000000000002,2.05 1.58,2.05 S60.659999875426294,17.85000032424927 60.659999875426294,16.560000324249266 z" id="svg_9"/><path class="cls-2" d="M62.9199998754263,13.570000324249268 H64.08999987542629 v1 h0 a1.4300000000000002,1.4300000000000002 0 0 1 1.44,-1.08 a2.12,2.12 0 0 1 0.4200000000000001,0 v1.15 a1.6800000000000004,1.6800000000000004 0 0 0 -0.55,-0.08000000000000003 a1.24,1.24 0 0 0 -1.28,1.3800000000000001 v3.54 H62.9199998754263 z" id="svg_10"/><path class="cls-2" d="M71.6299998754263,17.790000324249267 a2.4,2.4 0 0 1 -2.5700000000000003,1.83 a2.73,2.73 0 0 1 -2.8200000000000003,-3 c0,-1.87 1.09,-3.09 2.77,-3.09 a2.63,2.63 0 0 1 2.6900000000000004,3 v0.4200000000000001 H67.47999987542629 v0.08000000000000003 a1.55,1.55 0 0 0 1.61,1.6900000000000004 a1.36,1.36 0 0 0 1.3800000000000001,-0.8400000000000002 zM67.48999987542629,16.000000324249267 h3 A1.44,1.44 0 0 0 68.98999987542629,14.490000324249266 A1.5,1.5 0 0 0 67.48999987542629,16.000000324249267 z" id="svg_11"/><path class="cls-2" d="M24.409999875426294,5.180000324249267 a1.75,1.75 0 0 1 1.86,2 a1.75,1.75 0 0 1 -1.86,2 H22.989999875426292 V5.180000324249267 zm-0.81,3.38 h0.7500000000000002 c0.8200000000000002,0 1.29,-0.51 1.29,-1.42 a1.24,1.24 0 0 0 -1.29,-1.4 h-0.7500000000000002 z" id="svg_12"/><path class="cls-2" d="M26.989999875426292,7.630000324249268 a1.4100000000000001,1.4100000000000001 0 1 1 2.8,0 a1.4100000000000001,1.4100000000000001 0 1 1 -2.8,0 zm2.2,0 c0,-0.6400000000000002 -0.2900000000000001,-1 -0.8,-1 s-0.8,0.3800000000000001 -0.8,1 s0.2900000000000001,1 0.8,1 S29.159999875426294,8.280000324249269 29.159999875426294,7.630000324249268 z" id="svg_13"/><path class="cls-2" d="M33.48999987542629,9.120000324249268 h-0.6100000000000002 l-0.6200000000000002,-2.19 h0 l-0.6100000000000002,2.19 H30.989999875426292 l-0.8200000000000002,-3 h0.6000000000000002 L31.309999875426293,8.410000324249268 h0 L31.989999875426292,6.150000324249268 h0.56 L33.13999987542629,8.410000324249268 h0.05000000000000002 l0.53,-2.26 h0.5800000000000002 z" id="svg_14"/><path class="cls-2" d="M34.98999987542629,6.150000324249268 h0.5700000000000002 v0.4700000000000001 h0 a0.8900000000000002,0.8900000000000002 0 0 1 0.8900000000000002,-0.53 a1,1 0 0 1 1,1.1 v1.9300000000000002 h-0.5800000000000002 V7.340000324249267 c0,-0.4800000000000001 -0.21000000000000005,-0.7100000000000002 -0.6400000000000002,-0.7100000000000002 a0.6800000000000004,0.6800000000000004 0 0 0 -0.7100000000000002,0.7500000000000002 v1.7400000000000002 H34.98999987542629 z" id="svg_15"/><path class="cls-2" d="M38.44999987542629,4.990000324249268 H38.98999987542629 v4.13 h-0.5800000000000002 z" id="svg_16"/><path class="cls-2" d="M39.84999987542629,7.630000324249268 a1.4100000000000001,1.4100000000000001 0 1 1 2.8,0 a1.4100000000000001,1.4100000000000001 0 1 1 -2.8,0 zm2.2,0 c0,-0.6400000000000002 -0.2900000000000001,-1 -0.8,-1 s-0.79,0.3800000000000001 -0.79,1 s0.28,1 0.79,1 S42.049999875426295,8.280000324249269 42.049999875426295,7.630000324249268 z" id="svg_17"/><path class="cls-2" d="M43.269999875426294,8.280000324249269 c0,-0.54 0.4,-0.8500000000000002 1.11,-0.8900000000000002 l0.8,-0.05000000000000002 v-0.25 c0,-0.3200000000000001 -0.21000000000000005,-0.4900000000000001 -0.6100000000000002,-0.4900000000000001 s-0.55,0.12000000000000002 -0.6200000000000002,0.3300000000000001 h-0.5700000000000002 c0.06000000000000002,-0.51 0.54,-0.8400000000000002 1.22,-0.8400000000000002 s1.1600000000000001,0.3700000000000001 1.1600000000000001,1 v2 h-0.56 v-0.4200000000000001 h-0.05000000000000002 a1,1 0 0 1 -0.8900000000000002,0.4700000000000001 A0.9,0.9 0 0 1 43.269999875426294,8.280000324249269 zm1.9100000000000001,-0.26 v-0.24000000000000005 l-0.7300000000000002,0 c-0.4,0 -0.5900000000000002,0.17 -0.5900000000000002,0.4300000000000001 s0.23,0.4200000000000001 0.55,0.4200000000000001 A0.7000000000000002,0.7000000000000002 0 0 0 45.17999987542629,8.020000324249267 z" id="svg_18"/><path class="cls-2" d="M46.52999987542629,7.630000324249268 c0,-0.9400000000000002 0.4900000000000001,-1.53 1.24,-1.53 a1,1 0 0 1 0.91,0.52 h0 V4.990000324249268 h0.5900000000000002 v4.13 h-0.56 v-0.4700000000000001 h0 a1,1 0 0 1 -0.93,0.52 C46.98999987542629,9.17000032424927 46.52999987542629,8.570000324249268 46.52999987542629,7.630000324249268 zm0.6100000000000002,0 c0,0.6300000000000002 0.3000000000000001,1 0.79,1 s0.8,-0.3800000000000001 0.8,-1 s-0.3000000000000001,-1 -0.8,-1 S47.13999987542629,7.010000324249267 47.13999987542629,7.630000324249268 z" id="svg_19"/><path class="cls-2" d="M51.73999987542629,7.630000324249268 a1.4100000000000001,1.4100000000000001 0 1 1 2.8,0 a1.4100000000000001,1.4100000000000001 0 1 1 -2.8,0 zm2.2,0 c0,-0.6400000000000002 -0.2900000000000001,-1 -0.8,-1 s-0.8,0.3800000000000001 -0.8,1 s0.2900000000000001,1 0.8,1 S53.98999987542629,8.280000324249269 53.98999987542629,7.630000324249268 z" id="svg_20"/><path class="cls-2" d="M55.329999875426296,6.150000324249268 h0.56 v0.4700000000000001 h0 a0.9,0.9 0 0 1 0.8900000000000002,-0.53 a1,1 0 0 1 1,1.1 v1.9300000000000002 h-0.5900000000000002 V7.340000324249267 c0,-0.4800000000000001 -0.21000000000000005,-0.7100000000000002 -0.6400000000000002,-0.7100000000000002 a0.6800000000000004,0.6800000000000004 0 0 0 -0.7100000000000002,0.7500000000000002 v1.7400000000000002 h-0.5800000000000002 z" id="svg_21"/><path class="cls-2" d="M61.159999875426294,5.4100003242492685 v0.7500000000000002 h0.6500000000000002 v0.4900000000000001 h-0.6500000000000002 v1.53 c0,0.3100000000000001 0.13,0.45 0.4200000000000001,0.45 h0.23 v0.4800000000000001 a1.6600000000000001,1.6600000000000001 0 0 1 -0.3200000000000001,0 c-0.6500000000000002,0 -0.91,-0.23 -0.91,-0.8 V6.650000324249268 h-0.4800000000000001 v-0.4900000000000001 h0.4800000000000001 V5.4100003242492685 z" id="svg_22"/><path class="cls-2" d="M62.6099998754263,4.990000324249268 h0.5800000000000002 v1.6300000000000003 h0 a0.93,0.93 0 0 1 0.91,-0.53 a1,1 0 0 1 1,1.11 v1.92 h-0.5800000000000002 V7.340000324249267 c0,-0.4700000000000001 -0.22000000000000006,-0.7100000000000002 -0.6400000000000002,-0.7100000000000002 a0.6900000000000004,0.6900000000000004 0 0 0 -0.7500000000000002,0.7500000000000002 v1.7400000000000002 h-0.5800000000000002 z" id="svg_23"/><path class="cls-2" d="M68.5799998754263,8.320000324249268 a1.2,1.2 0 0 1 -1.28,0.8600000000000002 a1.36,1.36 0 0 1 -1.3800000000000001,-1.54 a1.37,1.37 0 0 1 1.37,-1.55 c0.8300000000000002,0 1.33,0.56 1.33,1.5 v0.2 h-2.1 v0 a0.79,0.79 0 0 0 0.79,0.8600000000000002 a0.7200000000000002,0.7200000000000002 0 0 0 0.7100000000000002,-0.3600000000000001 zm-2.06,-1 H67.98999987542629 a0.7100000000000002,0.7100000000000002 0 0 0 -0.7300000000000002,-0.77 A0.7600000000000002,0.7600000000000002 0 0 0 66.5199998754263,7.4100003242492685 z" id="svg_24"/></g></svg>